<svg width="229" height="48" viewBox="0 0 229 48" fill="none" xmlns="http://www.w3.org/2000/svg">
<circle cx="24" cy="24" r="23" stroke="#18191F" stroke-width="2"/>
<path fill-rule="evenodd" clip-rule="evenodd" d="M20.2274 17.2007C20.1296 17.1348 20.0001 17.1247 19.8918 17.1754C19.7838 17.2261 19.7156 17.3289 19.7156 17.4413V30.5595C19.7156 30.6719 19.7838 30.7747 19.8918 30.8254C19.9374 30.8469 19.9876 30.8576 20.0371 30.8576C20.1042 30.8576 20.1711 30.8382 20.2274 30.8001L29.8702 24.241C29.9528 24.1847 30.0014 24.0952 30.0014 24.0004C30.0014 23.9056 29.9528 23.8162 29.8702 23.7598L20.2274 17.2007Z" stroke="#18191F" stroke-width="2"/>
<line x1="56" y1="23" x2="136" y2="23" stroke="#18191F" stroke-width="2"/>
<path d="M144.98 29V18.92H148.242C148.321 18.92 148.485 18.9223 148.732 18.927C148.979 18.9317 149.217 18.948 149.446 18.976C150.258 19.074 150.946 19.3563 151.511 19.823C152.076 20.2897 152.505 20.8823 152.799 21.601C153.093 22.3197 153.24 23.106 153.24 23.96C153.24 24.814 153.093 25.6003 152.799 26.319C152.505 27.0377 152.076 27.6303 151.511 28.097C150.946 28.5637 150.258 28.846 149.446 28.944C149.217 28.972 148.979 28.9883 148.732 28.993C148.485 28.9977 148.321 29 148.242 29H144.98ZM146.912 27.208H148.242C148.368 27.208 148.538 27.2057 148.753 27.201C148.968 27.1917 149.161 27.1707 149.334 27.138C149.773 27.0493 150.13 26.844 150.405 26.522C150.685 26.2 150.89 25.8127 151.021 25.36C151.156 24.9073 151.224 24.4407 151.224 23.96C151.224 23.456 151.154 22.9777 151.014 22.525C150.879 22.0723 150.671 21.6897 150.391 21.377C150.111 21.0643 149.759 20.866 149.334 20.782C149.161 20.7447 148.968 20.7237 148.753 20.719C148.538 20.7143 148.368 20.712 148.242 20.712H146.912V27.208ZM157.059 29V18.92H158.963V29H157.059ZM166.87 29.21C166.123 29.21 165.449 29.0793 164.847 28.818C164.25 28.552 163.757 28.174 163.37 27.684C162.987 27.1893 162.745 26.6013 162.642 25.92L164.63 25.626C164.77 26.2047 165.059 26.6503 165.498 26.963C165.937 27.2757 166.436 27.432 166.996 27.432C167.309 27.432 167.612 27.383 167.906 27.285C168.2 27.187 168.44 27.0423 168.627 26.851C168.818 26.6597 168.914 26.424 168.914 26.144C168.914 26.0413 168.898 25.9433 168.865 25.85C168.837 25.752 168.788 25.661 168.718 25.577C168.648 25.493 168.548 25.4137 168.417 25.339C168.291 25.2643 168.13 25.1967 167.934 25.136L165.316 24.366C165.12 24.31 164.891 24.2307 164.63 24.128C164.373 24.0253 164.124 23.8783 163.881 23.687C163.638 23.4957 163.435 23.2437 163.272 22.931C163.113 22.6137 163.034 22.2147 163.034 21.734C163.034 21.0573 163.204 20.495 163.545 20.047C163.886 19.599 164.341 19.2653 164.91 19.046C165.479 18.8267 166.109 18.7193 166.8 18.724C167.495 18.7333 168.116 18.8523 168.662 19.081C169.208 19.3097 169.665 19.6433 170.034 20.082C170.403 20.516 170.669 21.048 170.832 21.678L168.774 22.028C168.699 21.7013 168.562 21.426 168.361 21.202C168.16 20.978 167.92 20.8077 167.64 20.691C167.365 20.5743 167.075 20.5113 166.772 20.502C166.473 20.4927 166.191 20.5347 165.925 20.628C165.664 20.7167 165.449 20.8473 165.281 21.02C165.118 21.1927 165.036 21.398 165.036 21.636C165.036 21.8553 165.104 22.035 165.239 22.175C165.374 22.3103 165.545 22.42 165.75 22.504C165.955 22.588 166.165 22.658 166.38 22.714L168.13 23.19C168.391 23.26 168.681 23.3533 168.998 23.47C169.315 23.582 169.619 23.7407 169.908 23.946C170.202 24.1467 170.442 24.4127 170.629 24.744C170.82 25.0753 170.916 25.4953 170.916 26.004C170.916 26.5453 170.802 27.019 170.573 27.425C170.349 27.8263 170.046 28.16 169.663 28.426C169.28 28.6873 168.846 28.8833 168.361 29.014C167.88 29.1447 167.383 29.21 166.87 29.21ZM178.781 29.21C177.773 29.21 176.902 28.9907 176.17 28.552C175.442 28.1133 174.879 27.4997 174.483 26.711C174.091 25.9223 173.895 25.0053 173.895 23.96C173.895 22.9147 174.091 21.9977 174.483 21.209C174.879 20.4203 175.442 19.8067 176.17 19.368C176.902 18.9293 177.773 18.71 178.781 18.71C179.938 18.71 180.909 18.997 181.693 19.571C182.481 20.145 183.037 20.922 183.359 21.902L181.441 22.434C181.254 21.8227 180.939 21.349 180.496 21.013C180.052 20.6723 179.481 20.502 178.781 20.502C178.141 20.502 177.607 20.6443 177.178 20.929C176.753 21.2137 176.433 21.615 176.219 22.133C176.004 22.651 175.897 23.26 175.897 23.96C175.897 24.66 176.004 25.269 176.219 25.787C176.433 26.305 176.753 26.7063 177.178 26.991C177.607 27.2757 178.141 27.418 178.781 27.418C179.481 27.418 180.052 27.2477 180.496 26.907C180.939 26.5663 181.254 26.0927 181.441 25.486L183.359 26.018C183.037 26.998 182.481 27.775 181.693 28.349C180.909 28.923 179.938 29.21 178.781 29.21ZM191.226 29.21C190.218 29.21 189.348 28.9907 188.615 28.552C187.887 28.1133 187.325 27.4997 186.928 26.711C186.536 25.9223 186.34 25.0053 186.34 23.96C186.34 22.9147 186.536 21.9977 186.928 21.209C187.325 20.4203 187.887 19.8067 188.615 19.368C189.348 18.9293 190.218 18.71 191.226 18.71C192.234 18.71 193.102 18.9293 193.83 19.368C194.563 19.8067 195.125 20.4203 195.517 21.209C195.914 21.9977 196.112 22.9147 196.112 23.96C196.112 25.0053 195.914 25.9223 195.517 26.711C195.125 27.4997 194.563 28.1133 193.83 28.552C193.102 28.9907 192.234 29.21 191.226 29.21ZM191.226 27.418C191.865 27.4273 192.397 27.2897 192.822 27.005C193.247 26.7203 193.564 26.3167 193.774 25.794C193.989 25.2713 194.096 24.66 194.096 23.96C194.096 23.26 193.989 22.6533 193.774 22.14C193.564 21.6267 193.247 21.2277 192.822 20.943C192.397 20.6583 191.865 20.5113 191.226 20.502C190.587 20.4927 190.055 20.6303 189.63 20.915C189.205 21.1997 188.886 21.6033 188.671 22.126C188.461 22.6487 188.356 23.26 188.356 23.96C188.356 24.66 188.461 25.2667 188.671 25.78C188.886 26.2933 189.205 26.6923 189.63 26.977C190.055 27.2617 190.587 27.4087 191.226 27.418ZM201.255 29L198.175 18.92H200.135L202.655 27.208L205.217 18.92H207.177L204.097 29H201.255ZM210.232 29V18.92H216.812V20.698H212.136V22.854H215.972V24.632H212.136V27.222H216.812V29H210.232ZM220.49 29V18.92H224.746C224.844 18.92 224.974 18.9247 225.138 18.934C225.306 18.9387 225.455 18.9527 225.586 18.976C226.188 19.0693 226.68 19.2677 227.063 19.571C227.45 19.8743 227.735 20.257 227.917 20.719C228.099 21.1763 228.19 21.6873 228.19 22.252C228.19 23.0967 227.98 23.82 227.56 24.422C227.14 25.0193 226.482 25.388 225.586 25.528L224.746 25.584H222.394V29H220.49ZM226.174 29L224.186 24.898L226.146 24.52L228.33 29H226.174ZM222.394 23.806H224.662C224.76 23.806 224.867 23.8013 224.984 23.792C225.1 23.7827 225.208 23.764 225.306 23.736C225.562 23.666 225.761 23.5493 225.901 23.386C226.041 23.218 226.136 23.0337 226.188 22.833C226.244 22.6277 226.272 22.434 226.272 22.252C226.272 22.07 226.244 21.8787 226.188 21.678C226.136 21.4727 226.041 21.2883 225.901 21.125C225.761 20.957 225.562 20.838 225.306 20.768C225.208 20.74 225.1 20.7213 224.984 20.712C224.867 20.7027 224.76 20.698 224.662 20.698H222.394V23.806Z" fill="#18191F"/>
</svg>
